<svg width="20" height="20" viewBox="0 0 20 20" fill="none" xmlns="http://www.w3.org/2000/svg">
<g id="fluent:call-20-filled" filter="url(#filter0_b_203_1157)">
<rect width="20" height="20" rx="6" fill="#F5FAFF"/>
<g id="Group">
<path id="Vector" d="M8.62035 6.04258C8.8392 5.9766 9.07404 5.98756 9.28579 6.07364C9.49754 6.15973 9.67342 6.31574 9.78415 6.5157L9.82116 6.59022L10.1522 7.32591C10.2527 7.54921 10.2853 7.79712 10.246 8.03881C10.2067 8.2805 10.0972 8.50531 9.93119 8.68526L9.86467 8.75128L9.34304 9.23791C9.24901 9.32693 9.31953 9.67152 9.65962 10.2607C9.9657 10.7908 10.2148 11.0384 10.3373 11.0519H10.3588L10.3853 11.0469L11.4106 10.7333C11.5484 10.691 11.6954 10.6894 11.8341 10.7285C11.9728 10.7676 12.0974 10.8458 12.1928 10.9538L12.2383 11.0114L12.917 11.9516C13.05 12.1359 13.1162 12.36 13.1049 12.587C13.0935 12.814 13.0052 13.0303 12.8544 13.2004L12.7934 13.2634L12.5224 13.5205C12.2789 13.751 11.9745 13.9068 11.6451 13.9693C11.3157 14.0318 10.9753 13.9984 10.6644 13.8731C9.69663 13.483 8.8174 12.5918 8.0187 11.2084C7.21849 9.82156 6.88591 8.61274 7.03444 7.57748C7.07939 7.26453 7.20826 6.9696 7.40736 6.72401C7.60646 6.47841 7.86835 6.29133 8.16523 6.18262L8.26176 6.15061L8.62035 6.04258Z" fill="#F9C557"/>
</g>
</g>
<defs>
<filter id="filter0_b_203_1157" x="-5" y="-5" width="30" height="30" filterUnits="userSpaceOnUse" color-interpolation-filters="sRGB">
<feFlood flood-opacity="0" result="BackgroundImageFix"/>
<feGaussianBlur in="BackgroundImageFix" stdDeviation="2.5"/>
<feComposite in2="SourceAlpha" operator="in" result="effect1_backgroundBlur_203_1157"/>
<feBlend mode="normal" in="SourceGraphic" in2="effect1_backgroundBlur_203_1157" result="shape"/>
</filter>
</defs>
</svg>
