<svg width="32" height="32" viewBox="0 0 32 32" fill="none" xmlns="http://www.w3.org/2000/svg">
<g id="clarity:search-line">
<g id="&#240;&#159;&#166;&#134; icon &#34;cog&#34;">
<path id="Vector" d="M14.9828 7L13.8457 9.70643C13.6183 9.77466 13.4136 9.88838 13.2089 10.0021L10.5024 8.86494L8.86494 10.5024L10.0021 13.2089C9.88838 13.4363 9.79741 13.6183 9.70643 13.8457L7 14.9828V17.2572L9.70643 18.3943C9.79741 18.6217 9.88838 18.8037 10.0021 19.0311L8.86494 21.7376L10.5024 23.3751L13.2089 22.2379C13.4136 22.3289 13.6183 22.4426 13.8457 22.5336L14.9828 25.24H17.2572L18.3943 22.5336C18.599 22.4426 18.8264 22.3516 19.0311 22.2379L21.7376 23.3751L23.3751 21.7376L22.2379 19.0311C22.3289 18.8264 22.4426 18.599 22.5336 18.3943L25.24 17.2572V14.9828L22.5336 13.8457C22.4653 13.641 22.3516 13.4136 22.2379 13.2089L23.3751 10.5024L21.7376 8.86494L19.0311 10.0021C18.8264 9.91112 18.599 9.79741 18.3943 9.70643L17.2572 7L14.9828 7ZM16.12 12.6858C18.0077 12.6858 19.5315 14.2096 19.5315 16.0973C19.5315 17.9849 18.0077 19.5087 16.12 19.5087C14.2323 19.5087 12.7085 17.9849 12.7085 16.0973C12.7085 14.2096 14.2323 12.6858 16.12 12.6858Z" fill="#929CAD"/>
</g>
</g>
</svg>
