<svg width="32" height="32" viewBox="0 0 32 32" fill="none" xmlns="http://www.w3.org/2000/svg">
<g id="fluent:calendar-agenda-20-filled">
<path id="Vector" d="M23.75 21.7857C23.75 22.6382 23.449 23.4558 22.9132 24.0586C22.3773 24.6614 21.6506 25 20.8929 25H10.6071C9.84938 25 9.12266 24.6614 8.58684 24.0586C8.05102 23.4558 7.75 22.6382 7.75 21.7857V10.2143C7.75 9.3618 8.05102 8.54424 8.58684 7.94144C9.12266 7.33865 9.84938 7 10.6071 7H20.8929C21.6506 7 22.3773 7.33865 22.9132 7.94144C23.449 8.54424 23.75 9.3618 23.75 10.2143V21.7857ZM20.3214 11.5C20.3215 11.3495 20.2746 11.2038 20.189 11.0882C20.1034 10.9727 19.9844 10.8945 19.8529 10.8674L19.75 10.8571H11.75L11.6471 10.8674C11.5154 10.8943 11.3962 10.9723 11.3104 11.0879C11.2245 11.2035 11.1775 11.3494 11.1775 11.5C11.1775 11.6506 11.2245 11.7965 11.3104 11.9121C11.3962 12.0277 11.5154 12.1057 11.6471 12.1326L11.75 12.1429H19.75L19.8529 12.1326C19.9844 12.1055 20.1034 12.0273 20.189 11.9118C20.2746 11.7962 20.3215 11.6505 20.3214 11.5ZM20.3214 16C20.3215 15.8495 20.2746 15.7038 20.189 15.5882C20.1034 15.4727 19.9844 15.3945 19.8529 15.3674L19.75 15.3571H11.75L11.6471 15.3674C11.5154 15.3943 11.3962 15.4723 11.3104 15.5879C11.2245 15.7035 11.1775 15.8494 11.1775 16C11.1775 16.1506 11.2245 16.2965 11.3104 16.4121C11.3962 16.5277 11.5154 16.6057 11.6471 16.6326L11.75 16.6429H19.75L19.8529 16.6326C19.9844 16.6055 20.1034 16.5273 20.189 16.4118C20.2746 16.2962 20.3215 16.1505 20.3214 16ZM20.3214 20.5C20.3215 20.3495 20.2746 20.2038 20.189 20.0882C20.1034 19.9727 19.9844 19.8945 19.8529 19.8674L19.75 19.8571H11.75L11.6471 19.8674C11.5154 19.8943 11.3962 19.9723 11.3104 20.0879C11.2245 20.2035 11.1775 20.3494 11.1775 20.5C11.1775 20.6506 11.2245 20.7965 11.3104 20.9121C11.3962 21.0277 11.5154 21.1057 11.6471 21.1326L11.75 21.1429H19.75L19.8529 21.1326C19.9844 21.1055 20.1034 21.0273 20.189 20.9118C20.2746 20.7962 20.3215 20.6505 20.3214 20.5Z" fill="#929CAD"/>
</g>
</svg>
