<svg width="33" height="32" viewBox="0 0 33 32" fill="none" xmlns="http://www.w3.org/2000/svg">
<g id="fluent:book-exclamation-mark-20-filled">
<rect x="0.5" width="32" height="32" rx="10" fill="#F5FAFF"/>
<path id="Vector" d="M9.38892 9.61115C9.38892 8.9481 9.65231 8.31222 10.1211 7.84338C10.59 7.37454 11.2259 7.11115 11.8889 7.11115H21.8889C22.552 7.11115 23.1878 7.37454 23.6567 7.84338C24.1255 8.31222 24.3889 8.9481 24.3889 9.61115V23.3611C24.3889 23.6927 24.2572 24.0106 24.0228 24.245C23.7884 24.4794 23.4704 24.6111 23.1389 24.6111H10.6389C10.6389 24.9427 10.7706 25.2606 11.005 25.495C11.2395 25.7295 11.5574 25.8611 11.8889 25.8611H23.7639C23.9297 25.8611 24.0887 25.927 24.2059 26.0442C24.3231 26.1614 24.3889 26.3204 24.3889 26.4861C24.3889 26.6519 24.3231 26.8109 24.2059 26.9281C24.0887 27.0453 23.9297 27.1111 23.7639 27.1111H11.8889C11.2259 27.1111 10.59 26.8478 10.1211 26.3789C9.65231 25.9101 9.38892 25.2742 9.38892 24.6111V9.61115ZM16.8889 10.8611C16.7232 10.8611 16.5642 10.927 16.447 11.0442C16.3298 11.1614 16.2639 11.3204 16.2639 11.4861V16.4861C16.2639 16.6519 16.3298 16.8109 16.447 16.9281C16.5642 17.0453 16.7232 17.1111 16.8889 17.1111C17.0547 17.1111 17.2137 17.0453 17.3309 16.9281C17.4481 16.8109 17.5139 16.6519 17.5139 16.4861V11.4861C17.5139 11.3204 17.4481 11.1614 17.3309 11.0442C17.2137 10.927 17.0547 10.8611 16.8889 10.8611ZM17.8264 19.9236C17.8264 19.675 17.7276 19.4365 17.5518 19.2607C17.376 19.0849 17.1376 18.9861 16.8889 18.9861C16.6403 18.9861 16.4018 19.0849 16.226 19.2607C16.0502 19.4365 15.9514 19.675 15.9514 19.9236C15.9514 20.1723 16.0502 20.4107 16.226 20.5866C16.4018 20.7624 16.6403 20.8611 16.8889 20.8611C17.1376 20.8611 17.376 20.7624 17.5518 20.5866C17.7276 20.4107 17.8264 20.1723 17.8264 19.9236Z" fill="#F9C557"/>
</g>
</svg>
