<svg width="20" height="20" viewBox="0 0 20 20" fill="none" xmlns="http://www.w3.org/2000/svg">
<g id="Group">
<path id="Vector" d="M0.484248 6.9216C0.918539 5.57963 1.63214 4.34487 2.57806 3.29859C2.65628 3.21215 2.75843 3.1509 2.87152 3.12263C2.98462 3.09436 3.10357 3.10033 3.21326 3.13979L5.46941 3.94673C5.63002 4.00409 5.80119 4.02583 5.97104 4.01045C6.14089 3.99508 6.30537 3.94295 6.45308 3.85768C6.60078 3.77242 6.72818 3.65605 6.82643 3.51666C6.92469 3.37726 6.99147 3.21816 7.02212 3.05039L7.45265 0.690735C7.47344 0.575868 7.52795 0.469787 7.60922 0.385997C7.6905 0.302206 7.79487 0.244497 7.90905 0.220215C9.28751 -0.0734051 10.7123 -0.0734051 12.0908 0.220215C12.2048 0.244704 12.3089 0.302505 12.3899 0.38628C12.471 0.470055 12.5253 0.576024 12.546 0.690735L12.9777 3.05039C13.0084 3.21816 13.0752 3.37726 13.1734 3.51666C13.2717 3.65605 13.3991 3.77242 13.5468 3.85768C13.6945 3.94295 13.859 3.99508 14.0288 4.01045C14.1987 4.02583 14.3698 4.00409 14.5304 3.94673L16.7866 3.13979C16.8964 3.10047 17.0154 3.09468 17.1285 3.12317C17.2416 3.15165 17.3437 3.21312 17.4218 3.29977C18.3676 4.3457 19.0812 5.58005 19.5156 6.9216C19.5515 7.03241 19.5536 7.15137 19.5218 7.26341C19.49 7.37545 19.4256 7.47551 19.3368 7.55092L17.5077 9.10363C17.3777 9.21406 17.2733 9.35142 17.2018 9.50619C17.1302 9.66096 17.0931 9.82945 17.0931 9.99997C17.0931 10.1705 17.1302 10.339 17.2018 10.4938C17.2733 10.6485 17.3777 10.7859 17.5077 10.8963L19.3368 12.449C19.4256 12.5244 19.49 12.6245 19.5218 12.7365C19.5536 12.8486 19.5515 12.9675 19.5156 13.0784C19.0813 14.4203 18.3677 15.6551 17.4218 16.7014C17.3436 16.7878 17.2414 16.849 17.1283 16.8773C17.0152 16.9056 16.8963 16.8996 16.7866 16.8602L14.5304 16.0532C14.3698 15.9959 14.1987 15.9741 14.0288 15.9895C13.859 16.0049 13.6945 16.057 13.5468 16.1423C13.3991 16.2275 13.2717 16.3439 13.1734 16.4833C13.0752 16.6227 13.0084 16.7818 12.9777 16.9496L12.546 19.3104C12.5251 19.4249 12.4707 19.5306 12.3896 19.6141C12.3086 19.6977 12.2046 19.7553 12.0908 19.7797C10.7124 20.0734 9.2875 20.0734 7.90905 19.7797C7.79487 19.7554 7.6905 19.6977 7.60922 19.614C7.52795 19.5302 7.47344 19.4241 7.45265 19.3092L7.0233 16.9496C6.99264 16.7818 6.92587 16.6227 6.82761 16.4833C6.72935 16.3439 6.60196 16.2275 6.45425 16.1423C6.30655 16.057 6.14207 16.0049 5.97222 15.9895C5.80236 15.9741 5.6312 15.9959 5.47058 16.0532L3.21326 16.8602C3.10346 16.8995 2.98444 16.9053 2.87133 16.8768C2.75823 16.8483 2.65614 16.7868 2.57806 16.7002C1.63225 15.6543 0.918656 14.4199 0.484248 13.0784C0.448524 12.9674 0.44656 12.8484 0.478602 12.7363C0.510645 12.6243 0.575251 12.5243 0.664222 12.449L2.49219 10.8963C2.62213 10.7859 2.72651 10.6485 2.79809 10.4938C2.86967 10.339 2.90675 10.1705 2.90675 9.99997C2.90675 9.82945 2.86967 9.66096 2.79809 9.50619C2.72651 9.35142 2.62213 9.21406 2.49219 9.10363L0.664222 7.55092C0.575251 7.47565 0.510645 7.37565 0.478602 7.26361C0.44656 7.15156 0.448524 7.03252 0.484248 6.9216ZM7.64792 9.99997C7.64792 10.6239 7.89578 11.2223 8.33698 11.6635C8.77818 12.1047 9.37657 12.3526 10.0005 12.3526C10.6245 12.3526 11.2229 12.1047 11.6641 11.6635C12.1053 11.2223 12.3531 10.6239 12.3531 9.99997C12.3531 9.37603 12.1053 8.77763 11.6641 8.33644C11.2229 7.89524 10.6245 7.64737 10.0005 7.64737C9.37657 7.64737 8.77818 7.89524 8.33698 8.33644C7.89578 8.77763 7.64792 9.37603 7.64792 9.99997Z" fill="#F9C557"/>
</g>
</svg>
